<?xml version="1.0" encoding="UTF-8"?> <svg xmlns="http://www.w3.org/2000/svg" width="11" height="11" viewBox="0 0 11 11" fill="none"><path d="M0.646447 9.74264L0.292893 10.0962L1 10.8033L1.35355 10.4497L0.646447 9.74264ZM10.6924 0.903803C10.6924 0.627661 10.4685 0.403803 10.1924 0.403803L5.69239 0.403804C5.41625 0.403803 5.19239 0.627661 5.19239 0.903803C5.19239 1.17995 5.41625 1.4038 5.69239 1.4038L9.69239 1.4038L9.69239 5.4038C9.69239 5.67995 9.91625 5.9038 10.1924 5.9038C10.4685 5.9038 10.6924 5.67995 10.6924 5.4038L10.6924 0.903803ZM1.35355 10.4497L10.5459 1.25736L9.83883 0.55025L0.646447 9.74264L1.35355 10.4497Z" fill="black"></path></svg> 