<?xml version="1.0" encoding="UTF-8"?> <svg xmlns="http://www.w3.org/2000/svg" width="174" height="30" viewBox="0 0 174 30" fill="none"><path d="M0 16.3307H16.4197V18.874H0V16.3307ZM1.11547 11.7071H17.5519V14.2476H1.11547V11.7071ZM5.65262 9.11084H8.99904L4.92757 21.4786H1.58116L5.65262 9.11084ZM12.5016 9.11084H15.8731L11.7766 21.4786H8.43017L12.5016 9.11084Z" fill="black"></path><path d="M22.3141 21.4508C21.6799 21.3259 21.0673 21.1089 20.4959 20.8066C19.9936 20.5402 19.5424 20.1871 19.1629 19.7636C18.8015 19.3566 18.523 18.883 18.343 18.3693C17.9638 17.2354 17.9638 16.0089 18.343 14.8751C18.523 14.3614 18.8015 13.8877 19.1629 13.4807C19.5418 13.0589 19.9933 12.7085 20.4959 12.4461C21.0701 12.1483 21.6816 11.9288 22.3141 11.7936C23.8046 11.4887 25.3413 11.4887 26.8318 11.7936C27.4619 11.9279 28.0708 12.1474 28.6417 12.4461C29.1439 12.713 29.5973 13.0628 29.983 13.4807C30.3547 13.8831 30.6395 14.3577 30.8196 14.8751C31.1839 16.0113 31.1839 17.233 30.8196 18.3693C30.6369 18.8912 30.3526 19.3718 29.983 19.7831C29.6021 20.2077 29.1477 20.5601 28.6417 20.8233C28.0721 21.1191 27.4638 21.3331 26.8346 21.4591C25.3382 21.7417 23.8022 21.7417 22.3058 21.4591L22.3141 21.4508ZM25.7024 18.98C25.9946 18.9334 26.2772 18.8392 26.539 18.7011C26.7673 18.5781 26.9706 18.4135 27.1385 18.2159C27.3085 18.0138 27.4297 17.7752 27.4927 17.5187C27.634 16.9275 27.634 16.3113 27.4927 15.72C27.4297 15.4635 27.3085 15.225 27.1385 15.0229C26.9706 14.8253 26.7673 14.6607 26.539 14.5376C26.277 14.3971 25.9948 14.2983 25.7024 14.2448C24.955 14.1147 24.1909 14.1147 23.4435 14.2448C23.1449 14.2981 22.8562 14.3969 22.5874 14.5376C22.3551 14.6582 22.1508 14.8264 21.9879 15.0312C21.8258 15.2385 21.7055 15.4753 21.6337 15.7284C21.5544 16.0191 21.5159 16.3195 21.5194 16.6208C21.5166 16.9239 21.5551 17.226 21.6337 17.5187C21.7005 17.7718 21.82 18.008 21.9844 18.2117C22.1487 18.4155 22.3542 18.5823 22.5874 18.7011C22.856 18.8395 23.145 18.9337 23.4435 18.98C24.1921 19.0953 24.9538 19.0953 25.7024 18.98Z" fill="black"></path><path d="M35.5891 21.4339C35.0596 21.2955 34.5538 21.0783 34.0888 20.7897C33.6547 20.5153 33.2763 20.1614 32.9733 19.7467C32.6622 19.3196 32.4264 18.8423 32.2762 18.3357C31.96 17.2094 31.96 16.0179 32.2762 14.8917C32.4267 14.3903 32.6626 13.9186 32.9733 13.4973C33.2805 13.084 33.6581 12.7281 34.0888 12.446C34.5516 12.1492 35.0577 11.9262 35.5891 11.7851C36.1971 11.6261 36.8236 11.5491 37.4519 11.5564C38.1986 11.5485 38.9405 11.6771 39.641 11.9357C40.2832 12.1712 40.874 12.5281 41.3812 12.987C41.8677 13.4315 42.2529 13.9755 42.5106 14.5821C43.0385 15.887 43.0385 17.3459 42.5106 18.6508C42.2546 19.2623 41.8693 19.8112 41.3812 20.2599C40.8741 20.7162 40.2831 21.0695 39.641 21.3C38.9393 21.5533 38.1979 21.6789 37.4519 21.6709C36.8233 21.673 36.1971 21.5933 35.5891 21.4339ZM40.2685 18.7679C40.7021 18.6056 41.0751 18.3134 41.3366 17.9313C41.5852 17.5363 41.7104 17.076 41.6963 16.6095C41.7012 16.2572 41.6328 15.9077 41.4955 15.5832C41.3612 15.2818 41.1543 15.0183 40.8932 14.8164C40.5955 14.5941 40.2573 14.4321 39.8976 14.3395C39.4536 14.2225 38.9958 14.1662 38.5367 14.1722C38.1724 14.1691 37.8088 14.2046 37.4519 14.2781C37.1604 14.3389 36.8787 14.4403 36.6153 14.5793C36.3836 14.7008 36.1772 14.8655 36.0074 15.0645C35.8399 15.2622 35.7163 15.4932 35.6449 15.7422C35.4929 16.3095 35.4929 16.9067 35.6449 17.474C35.7157 17.7232 35.8394 17.9543 36.0074 18.1516C36.1772 18.3507 36.3836 18.5154 36.6153 18.6368C36.8787 18.7758 37.1604 18.8772 37.4519 18.938C37.8088 19.0115 38.1724 19.047 38.5367 19.044C39.1262 19.0612 39.7136 18.9675 40.2685 18.7679ZM45.0873 8.22949V21.4785H42.0337L41.6963 18.6536V8.22949H45.0873Z" fill="black"></path><path d="M50.2578 21.4339C49.7283 21.2955 49.2226 21.0783 48.7575 20.7897C48.3227 20.5162 47.9441 20.1622 47.6421 19.7467C47.3298 19.3202 47.0939 18.8428 46.9449 18.3357C46.6251 17.2099 46.6251 16.0174 46.9449 14.8917C47.0943 14.3898 47.3302 13.9179 47.6421 13.4973C47.9478 13.0828 48.3256 12.7266 48.7575 12.446C49.2201 12.1488 49.7263 11.9258 50.2578 11.7851C50.8649 11.6261 51.4905 11.5492 52.1179 11.5564C52.8646 11.5485 53.6065 11.6771 54.307 11.9357C54.9495 12.1705 55.5404 12.5275 56.0471 12.987C56.5287 13.4329 56.909 13.9768 57.1626 14.5821C57.6906 15.887 57.6906 17.3459 57.1626 18.6508C56.9107 19.261 56.5302 19.8099 56.0471 20.2599C55.5405 20.7168 54.9494 21.0701 54.307 21.3C53.6053 21.5533 52.8639 21.6789 52.1179 21.6709C51.4903 21.6725 50.865 21.5928 50.2578 21.4339ZM54.9373 18.7679C55.3715 18.6067 55.7448 18.3143 56.0053 17.9313C56.2548 17.5365 56.381 17.0763 56.3679 16.6095C56.3718 16.257 56.3025 15.9075 56.1642 15.5832C56.0309 15.2819 55.8249 15.0184 55.5647 14.8164C55.266 14.5941 54.9269 14.4321 54.5663 14.3395C54.1233 14.2226 53.6664 14.1663 53.2083 14.1722C52.843 14.169 52.4784 14.2045 52.1207 14.2781C51.8291 14.3389 51.5475 14.4403 51.2841 14.5793C51.0523 14.7008 50.846 14.8655 50.6761 15.0645C50.5097 15.2629 50.3862 15.4936 50.3136 15.7422C50.1617 16.3095 50.1617 16.9067 50.3136 17.474C50.3856 17.7228 50.5091 17.9537 50.6761 18.1516C50.846 18.3507 51.0523 18.5154 51.2841 18.6368C51.5475 18.7758 51.8291 18.8772 52.1207 18.938C52.4784 19.0116 52.843 19.0472 53.2083 19.044C53.7968 19.0609 54.3833 18.9673 54.9373 18.7679ZM59.77 8.22949V21.4785H56.7025L56.3679 18.6536V8.22949H59.77Z" fill="black"></path><path d="M65.6954 21.4339C65.0587 21.2988 64.442 21.0823 63.8605 20.7897C63.3496 20.5327 62.8917 20.1817 62.5107 19.7551C62.1453 19.3418 61.8614 18.863 61.6741 18.344C61.4795 17.7888 61.3851 17.2033 61.3953 16.615C61.3879 16.0452 61.4823 15.4785 61.6741 14.9418C61.8644 14.4293 62.1481 13.9565 62.5107 13.5475C62.8913 13.1207 63.3421 12.7623 63.8437 12.4878C64.4084 12.1776 65.0139 11.9485 65.6425 11.8074C66.381 11.6423 67.1361 11.5628 67.8929 11.5703C68.7663 11.5615 69.6369 11.6713 70.4808 11.8966C71.2033 12.086 71.8848 12.4064 72.4914 12.842C73.0331 13.2322 73.4777 13.7417 73.791 14.3311C74.103 14.9468 74.26 15.6293 74.2483 16.3194C74.2483 16.5314 74.2483 16.721 74.2232 16.8911C74.2039 17.0672 74.1713 17.2415 74.1256 17.4126H63.1159V15.5414H71.995L70.9549 16.5648C70.9659 16.462 70.9715 16.3587 70.9716 16.2553C70.9713 16.1621 70.9657 16.069 70.9549 15.9764C70.9364 15.6554 70.8407 15.3435 70.676 15.0673C70.5255 14.8168 70.3121 14.6101 70.0569 14.4678C69.7641 14.3075 69.4493 14.191 69.1227 14.122C68.7166 14.0365 68.3023 13.9954 67.8873 13.9993C67.4842 13.9956 67.0817 14.0311 66.6854 14.1052C66.3687 14.1628 66.0624 14.2672 65.7763 14.4148C65.5278 14.5431 65.3095 14.7228 65.1359 14.9421C64.9623 15.1614 64.8375 15.4151 64.7696 15.6864C64.6905 16.0009 64.6521 16.3242 64.6553 16.6485C64.6526 16.9636 64.6911 17.2776 64.7696 17.5827C64.8399 17.8522 64.9737 18.1008 65.16 18.3078C65.3507 18.5131 65.574 18.6855 65.8209 18.8181C66.1082 18.9697 66.418 19.0742 66.7384 19.1276C67.1409 19.1963 67.5487 19.229 67.957 19.2252C68.4447 19.2312 68.932 19.193 69.4127 19.1109C69.7565 19.0584 70.0848 18.9319 70.3748 18.74C70.596 18.5896 70.7678 18.3771 70.8684 18.1293L74.1535 18.687C73.9455 19.3306 73.5713 19.9078 73.0687 20.3602C72.4858 20.8492 71.7961 21.194 71.0553 21.3669C70.0289 21.6109 68.9756 21.7234 67.9208 21.7016C67.1716 21.6918 66.4256 21.602 65.6954 21.4339Z" fill="black"></path><path d="M79.4474 21.4339C78.8106 21.2988 78.1939 21.0823 77.6124 20.7897C77.102 20.532 76.6442 20.1811 76.2627 19.7551C75.8973 19.3418 75.6134 18.863 75.4261 18.344C75.2315 17.7888 75.137 17.2033 75.1472 16.615C75.1399 16.0452 75.2343 15.4785 75.4261 14.9418C75.6163 14.4293 75.9 13.9565 76.2627 13.5475C76.6438 13.1213 77.0946 12.763 77.5957 12.4878C78.1605 12.1781 78.766 11.949 79.3944 11.8074C80.133 11.6423 80.8881 11.5628 81.6448 11.5703C82.5183 11.5615 83.3888 11.6713 84.2327 11.8966C84.9552 12.086 85.6367 12.4064 86.2434 12.842C86.785 13.2322 87.2296 13.7417 87.5429 14.3311C87.855 14.9468 88.012 15.6293 88.0002 16.3194C88.0002 16.5314 88.0003 16.721 87.9752 16.8911C87.9572 17.0674 87.9246 17.2418 87.8776 17.4126H76.879V15.5414H85.7581L84.718 16.5648C84.7289 16.462 84.7345 16.3587 84.7347 16.2553C84.7343 16.1621 84.7287 16.069 84.718 15.9764C84.6995 15.6554 84.6038 15.3435 84.4391 15.0673C84.2886 14.8168 84.0752 14.6101 83.82 14.4678C83.5274 14.3071 83.2126 14.1905 82.8858 14.122C82.4797 14.0365 82.0654 13.9954 81.6504 13.9993C81.2473 13.9956 80.8448 14.0311 80.4485 14.1052C80.1318 14.1628 79.8254 14.2672 79.5394 14.4148C79.2947 14.5444 79.0785 14.7217 78.9036 14.9363C78.7282 15.1568 78.6026 15.4127 78.5355 15.6864C78.454 16.0005 78.4146 16.324 78.4183 16.6485C78.4151 16.9638 78.4545 17.278 78.5355 17.5827C78.6037 17.8524 78.7367 18.1013 78.9231 18.3078C79.1138 18.5131 79.3371 18.6855 79.584 18.8181C79.8713 18.9697 80.1811 19.0742 80.5015 19.1276C80.904 19.1962 81.3118 19.2289 81.7201 19.2252C82.2078 19.2312 82.6951 19.193 83.1758 19.1109C83.5196 19.0584 83.8479 18.9319 84.1379 18.74C84.3586 18.5883 84.5309 18.3763 84.6343 18.1293L87.9166 18.687C87.7087 19.3306 87.3344 19.9078 86.8318 20.3602C86.249 20.8492 85.5592 21.194 84.8183 21.3669C83.7919 21.6109 82.7387 21.7234 81.6839 21.7016C80.9309 21.6926 80.1812 21.6028 79.4474 21.4339Z" fill="black"></path><path d="M100.001 10.967L108.001 18.967" stroke="black" stroke-width="3"></path><path d="M108.001 10.967L100.001 18.967" stroke="black" stroke-width="3"></path><g clip-path="url(#clip0_62_1791)"><path d="M120.001 4.81298H122.943V29.9336L128.137 29.502V4.81298H131.081V-0.000244141H120.001V4.81298Z" fill="black"></path><path d="M139.727 13.3594L137.036 -0.000244141H131.97L131.972 29.1406L136.498 28.7516V14.6393L140.32 28.4412L144.19 28.1053V-0.000244141H139.727V13.3594Z" fill="black"></path><path d="M168.118 -0.000244141L166.757 10.8742L165.461 -0.000244141H159.229V26.8084L163.656 26.4257V13.0214L165.833 26.2323L167.516 26.0983L169.511 13.0214V25.9134L174.001 25.535V-0.000244141H168.118Z" fill="black"></path><path d="M152.693 21.8974C152.693 22.8498 152.438 23.5365 150.844 23.7895V4.03913C152.136 4.03913 152.693 4.78535 152.693 5.73991V21.8974ZM151.63 -0.000244141H145.616V27.982L151.605 27.4653C156.006 26.9636 157.964 25.282 157.964 21.4318V5.91212C157.964 2.05558 155.753 -0.000244141 151.622 -0.000244141" fill="black"></path></g><defs><clipPath id="clip0_62_1791"><rect width="54" height="29.9339" fill="white" transform="translate(120.001)"></rect></clipPath></defs></svg> 