<?xml version="1.0" encoding="UTF-8"?> <svg xmlns="http://www.w3.org/2000/svg" width="60" height="38" viewBox="0 0 60 38" fill="none"><path d="M55 5.50024H37.5V0.500244H55V5.50024ZM59.315 30.5002C58.21 33.7427 54.2425 38.0002 46.5625 38.0002C38.8775 38.0002 32.6525 33.6777 32.6525 23.8127C32.6525 14.0377 38.465 9.01274 46.3175 9.01274C54.0225 9.01274 58.7275 13.4677 59.755 20.0777C59.95 21.3427 60.0275 23.0477 59.9925 25.4277H39.925C40.25 33.4552 48.6325 33.7077 51.395 30.5002H59.315ZM40.1 20.5002H52.5125C52.25 16.6327 49.6725 14.9527 46.32 14.9527C42.655 14.9527 40.6275 16.8727 40.1 20.5002ZM16.165 37.9702H0V0.552744H17.3825C31.0725 0.755244 31.3325 14.1627 24.1825 17.8177C32.835 20.9677 33.125 37.9702 16.165 37.9702ZM7.5 15.5002H16.46C22.73 15.5002 23.725 8.00024 15.68 8.00024H7.5V15.5002ZM15.9775 23.0002H7.5V30.5402H15.8525C23.49 30.5402 23.0225 23.0002 15.9775 23.0002Z" fill="black"></path></svg> 